<?xml version="1.0" encoding="utf-8"?>
<!-- Generator: Adobe Illustrator 16.0.0, SVG Export Plug-In . SVG Version: 6.00 Build 0)  -->
<!DOCTYPE svg PUBLIC "-//W3C//DTD SVG 1.1//EN" "http://www.w3.org/Graphics/SVG/1.1/DTD/svg11.dtd">
<svg version="1.1" id="Layer_1" xmlns="http://www.w3.org/2000/svg" xmlns:xlink="http://www.w3.org/1999/xlink" x="0px" y="0px"
	 width="100px" height="100px" viewBox="0 0 100 100" enable-background="new 0 0 100 100" xml:space="preserve">
<path d="M50,11.126c-20.871,0-37.791,16.92-37.791,37.791S29.129,86.708,50,86.708s37.791-16.92,37.791-37.791
	S70.871,11.126,50,11.126z M71.566,54.988h-16.08v16.076c0,2.756-2.231,4.988-4.986,4.988c-2.754,0-4.988-2.232-4.988-4.988V54.988
	H29.435c-2.755,0-4.988-2.233-4.988-4.988s2.233-4.988,4.988-4.988h16.078V28.935c0-2.755,2.233-4.987,4.988-4.987
	s4.987,2.232,4.987,4.987v16.078h16.078c2.754,0,4.988,2.233,4.988,4.988S74.32,54.988,71.566,54.988z"/>
<path fill="#FFFFFF" stroke="#FFFFFF" stroke-miterlimit="10" d="M71.629,54.988h-16.08v16.076c0,2.756-2.232,4.988-4.986,4.988
	c-2.755,0-4.99-2.232-4.99-4.988V54.988H29.496c-2.755,0-4.988-2.233-4.988-4.988s2.233-4.988,4.988-4.988h16.079V28.935
	c0-2.755,2.232-4.987,4.988-4.987c2.756,0,4.988,2.232,4.988,4.987v16.078h16.078c2.754,0,4.988,2.233,4.988,4.988
	S74.383,54.988,71.629,54.988z"/>
</svg>
