<?xml version="1.0" encoding="utf-8"?>
<!-- Generator: Adobe Illustrator 16.0.4, SVG Export Plug-In . SVG Version: 6.00 Build 0)  -->
<!DOCTYPE svg PUBLIC "-//W3C//DTD SVG 1.1//EN" "http://www.w3.org/Graphics/SVG/1.1/DTD/svg11.dtd">
<svg version="1.1" id="Layer_1" xmlns="http://www.w3.org/2000/svg" xmlns:xlink="http://www.w3.org/1999/xlink" x="0px" y="0px"
	 width="26px" height="26px" viewBox="0 0 26 26" enable-background="new 0 0 26 26" xml:space="preserve">
<path fill="#333333" d="M21.924,16.859c0,0-0.08-0.604-0.908-0.604c-0.128,0-0.949,0-1.769,0c-1.087-3.63-2.84-9.346-3.935-12.88
	L14.445,0.28c0,0-0.03,0.013-0.093,0.03c-0.001-0.005-0.005-0.017-0.007-0.022C14.346,0.129,13.743,0,13,0s-1.346,0.129-1.346,0.288
	C11.391,1.082,8.294,11.074,6.71,16.376c-0.978-0.03-1.919-0.121-2.04-0.121c-0.582,0-0.677,0.541-0.677,0.541l-2.436,8.472
	L2.032,26H24.17l0.271-0.732L21.924,16.859z M12.999,3.888c0.136,0,0.254-0.006,0.377-0.011c0.452,1.458,1.017,3.293,1.605,5.213
	C14.441,9.217,13.79,9.313,13,9.313c-0.791,0-1.442-0.097-1.984-0.223c0.589-1.918,1.155-3.753,1.607-5.213
	C12.746,3.882,12.863,3.888,12.999,3.888z M13,14.771c1.583,0,2.729-0.255,3.547-0.546c0.606,2.005,1.128,3.744,1.431,4.787
	c-1.258,0.655-3.017,1.112-4.945,1.112c-1.946,0-3.745-0.436-5.024-1.079c0.298-1.034,0.826-2.793,1.441-4.822
	C10.268,14.516,11.414,14.771,13,14.771z"/>
</svg>
